<svg width="261" height="260" viewBox="0 0 261 260" fill="none" xmlns="http://www.w3.org/2000/svg">
<circle cx="130.5" cy="130" r="130" fill="#EBF0E4"/>
<path d="M98.875 69.625L102.112 77.5312C104.13 82.4475 106.873 94.7353 106.241 100.531C98.4035 105.361 93.5965 110.076 89.8878 114.009C85.3568 110.347 76.3925 104.125 61.5 104.125H55.75V109.875C55.75 120.881 59.7232 129.822 61.1435 132.875C59.706 135.905 55.75 144.53 55.75 155.875V161.625H61.5C76.2775 161.625 85.351 155.381 89.8935 151.741C96.6957 158.75 106.396 166.139 118.643 171.688C118.103 175.258 117.678 180.243 119.178 186.062L120.259 190.375H124.75C131.845 190.375 137.958 186.85 142.897 183.728C146.939 181.163 148.894 179.369 149.906 178.513C172.774 177.708 187.373 165.374 195.188 153.178C203.272 140.58 205.25 128.022 205.25 128.022L205.428 126.584L204.893 125.147C204.893 125.147 191.726 88.9853 156.019 87.2315C152.223 82.6315 146.916 78.8135 139.487 75.7315C130.701 72.0975 119.65 69.625 107.5 69.625H98.875ZM115.584 81.8438C122.841 82.6488 129.626 84.115 134.991 86.3345C142.339 89.3705 147.457 93.7233 148.647 95.6783L150.269 98.375H153.5C182.227 98.375 192.56 125.572 193.393 127.844C192.991 129.954 191.324 137.975 185.487 147.072C178.812 157.468 168.007 167.375 147.75 167.375H145.594L143.978 168.812C143.978 168.812 140.942 171.4 136.79 174.022C134.605 175.396 132.748 175.644 130.5 176.54C130.73 173.913 130.5 170.072 130.5 170.072L131.759 165.04L127.085 163.419C112.847 157.985 100.738 147.744 94.5625 140.603L90.6065 135.928L86.294 140.241C86.294 140.241 78.635 145.611 68.6875 148.147C70.171 141.408 72.4595 135.394 72.4595 135.394L73.7188 132.875L72.4595 130.357C72.4595 130.357 69.9697 123.756 68.5092 116.7C79.1065 119.041 86.294 125.509 86.294 125.509L90.6065 129.822L94.5625 125.147C99.7088 119.334 113.566 104.844 133.915 102.147L132.294 90.8253C126.791 91.5498 121.99 93.1425 117.384 94.9652C117.091 90.1352 116.844 85.978 115.584 81.8438ZM167.875 121.375C165.588 121.375 163.394 122.284 161.776 123.901C160.159 125.519 159.25 127.713 159.25 130C159.25 132.287 160.159 134.481 161.776 136.099C163.394 137.716 165.588 138.625 167.875 138.625C170.162 138.625 172.356 137.716 173.974 136.099C175.591 134.481 176.5 132.287 176.5 130C176.5 127.713 175.591 125.519 173.974 123.901C172.356 122.284 170.162 121.375 167.875 121.375Z" fill="black"/>
</svg>
