<svg width="261" height="260" viewBox="0 0 261 260" fill="none" xmlns="http://www.w3.org/2000/svg">
<circle cx="130.5" cy="130" r="130" fill="#EBF0E4"/>
<path d="M107.5 61C92.6535 61 79.4458 69.2685 70.3033 81.8438C61.1608 94.4248 55.75 111.399 55.75 130C55.75 148.595 61.1608 165.581 70.3033 178.156C79.4458 190.737 92.6535 199 107.5 199C154.822 199 180.048 171.935 186.206 143.478C190.53 140.35 193.75 135.727 193.75 130C193.75 124.273 190.536 119.65 186.2 116.522C179.72 87.3465 149.55 61 107.5 61ZM107.5 72.5C118.057 72.5 127.855 78.342 135.353 88.6747C142.851 98.996 147.75 113.67 147.75 130C147.75 146.33 142.851 160.993 135.353 171.331C127.849 181.652 118.057 187.5 107.5 187.5C96.943 187.5 87.145 181.658 79.647 171.325C72.149 161.004 67.25 146.33 67.25 130C67.25 113.67 72.149 99.0075 79.647 88.669C87.1508 78.342 96.943 72.5 107.5 72.5ZM144.156 81.3033C161.636 90.5608 172.86 105.787 175.603 120.656L176.138 123.531L178.84 124.791C180.835 125.711 182.25 127.643 182.25 130C182.25 132.357 180.836 134.289 178.835 135.21L176.144 136.469L175.603 139.344C172.544 155.99 162.505 172.314 142.356 181.031C143.144 180.088 143.955 179.168 144.697 178.156C153.839 165.575 159.25 148.601 159.25 130C159.25 111.404 153.839 94.419 144.697 81.8438C144.536 81.6425 144.312 81.5045 144.156 81.3033ZM107.5 84C103.389 84 99.5247 85.4835 96 87.956L107.678 115.441L119.541 88.1285C115.895 85.4663 111.766 84 107.5 84ZM87.375 97.1157C82.8612 104.188 79.762 113.676 78.9283 124.25H98.875L87.375 97.1157ZM127.987 97.6562L116.297 124.25H136.066C135.261 113.917 132.334 104.688 127.976 97.6562H127.987ZM78.9225 135.75C79.7275 146.083 82.6542 155.312 87.007 162.344L98.7025 135.75H78.9225ZM116.119 135.75L127.619 162.884C132.133 155.812 135.232 146.324 136.066 135.75H116.119ZM107.316 144.553L95.4537 171.866C99.0935 174.539 103.228 176 107.494 176C111.605 176 115.469 174.517 118.994 172.044L107.316 144.553Z" fill="black"/>
</svg>
