<svg width="227" height="162" viewBox="0 0 227 162" fill="none" xmlns="http://www.w3.org/2000/svg">
<path d="M106.197 91.6655C101.258 91.6655 96.9158 90.6351 93.163 88.5743C89.4158 86.5135 86.5113 83.6899 84.4439 80.092C82.3821 76.4999 81.3484 72.3783 81.3484 67.7273C81.3484 63.0762 82.3484 58.9547 84.354 55.3625C86.3596 51.7703 89.118 48.9581 92.6349 46.9258C96.1518 44.8934 100.118 43.8801 104.534 43.8801C109.006 43.8801 112.961 44.8821 116.388 46.8802C119.815 48.8841 122.5 51.6963 124.45 55.317C126.393 58.9376 127.371 63.1616 127.371 67.9948C127.371 68.3478 127.354 68.7634 127.326 69.2302C127.298 69.7027 127.253 70.141 127.197 70.5566H87.8877V64.4596H122.843L119.444 66.5773C119.5 63.5772 118.893 60.8959 117.612 58.5391C116.332 56.1823 114.573 54.3435 112.337 53.0171C110.101 51.6906 107.5 51.0303 104.534 51.0303C101.629 51.0303 99.0394 51.6906 96.7753 53.0171C94.5113 54.3435 92.736 56.1993 91.4607 58.5789C90.1798 60.9642 89.545 63.6911 89.545 66.7481V68.1599C89.545 71.2796 90.2529 74.0633 91.6798 76.5056C93.1012 78.9478 95.09 80.8492 97.6518 82.204C100.208 83.5589 103.146 84.2364 106.455 84.2364C109.185 84.2364 111.669 83.7639 113.91 82.8246C116.146 81.8853 118.107 80.4677 119.792 78.5834L124.41 84.0599C122.32 86.5306 119.719 88.4206 116.607 89.7128C113.506 91.0165 110.034 91.6655 106.197 91.6655Z" fill="white"/>
<path d="M152.219 91.6655C148.382 91.6655 144.736 91.1361 141.281 90.0772C137.82 89.0184 135.107 87.7204 133.129 86.1891L136.618 79.4772C138.596 80.8321 141.034 81.9821 143.938 82.9214C146.843 83.8664 149.809 84.3332 152.832 84.3332C156.725 84.3332 159.528 83.7753 161.242 82.6538C162.955 81.538 163.815 79.9725 163.815 77.9743C163.815 76.5056 163.292 75.3557 162.247 74.5302C161.202 73.7048 159.82 73.0899 158.107 72.6744C156.393 72.2645 154.489 71.8944 152.399 71.57C150.309 71.2455 148.214 70.8356 146.124 70.3346C144.034 69.8336 142.112 69.1277 140.371 68.2169C138.629 67.306 137.23 66.0366 136.185 64.4198C135.141 62.803 134.618 60.6341 134.618 57.93C134.618 55.1064 135.405 52.63 136.972 50.5123C138.539 48.3946 140.764 46.7607 143.641 45.6108C146.517 44.4608 149.933 43.8859 153.882 43.8859C156.905 43.8859 159.966 44.2559 163.079 44.9903C166.185 45.7246 168.73 46.7721 170.708 48.127L167.135 54.8388C165.045 53.427 162.865 52.4535 160.596 51.9241C158.332 51.3947 156.062 51.1271 153.798 51.1271C150.135 51.1271 147.405 51.7305 145.607 52.9374C143.803 54.1443 142.905 55.6927 142.905 57.577C142.905 59.1653 143.444 60.3893 144.517 61.2432C145.59 62.0971 146.989 62.7575 148.702 63.23C150.416 63.7025 152.32 64.101 154.41 64.4198C156.5 64.7443 158.596 65.1542 160.685 65.6551C162.775 66.1561 164.68 66.8449 166.393 67.733C168.107 68.6154 169.5 69.8507 170.579 71.4447C171.652 73.033 172.191 75.1564 172.191 77.8036C172.191 80.6272 171.376 83.0751 169.753 85.1359C168.124 87.1967 165.832 88.8021 162.865 89.952C159.899 91.1019 156.348 91.6655 152.219 91.6655Z" fill="white"/>
<path d="M176.017 51.2979V44.3185H205.478V51.2979H176.017ZM198.506 91.6655C193.854 91.6655 190.253 90.4017 187.697 87.8684C185.141 85.3351 183.86 81.7145 183.86 77.0066V34.0771H192.23V76.6479C192.23 79.1812 192.854 81.1225 194.107 82.4773C195.354 83.8322 197.141 84.5097 199.466 84.5097C202.079 84.5097 204.259 83.7753 206.006 82.3009L208.624 88.3978C207.343 89.5193 205.82 90.3391 204.045 90.8685C202.27 91.398 200.421 91.6655 198.506 91.6655Z" fill="white"/>
<path d="M95.4046 141.096C92.9832 141.096 90.8596 140.681 89.0338 139.849C87.2079 139.018 85.8034 137.863 84.8203 136.388C83.8371 134.914 83.3428 133.24 83.3428 131.367C83.3428 129.58 83.7641 127.957 84.6068 126.505C85.4495 125.048 86.8203 123.887 88.7304 123.016C90.6405 122.145 93.2136 121.706 96.4551 121.706H106.792V126.01H96.7023C93.7473 126.01 91.7585 126.511 90.7304 127.507C89.7023 128.504 89.1911 129.711 89.1911 131.122C89.1911 132.745 89.8259 134.043 91.1012 135.022C92.3709 136.001 94.1349 136.485 96.3933 136.485C98.6068 136.485 100.545 135.984 102.208 134.988C103.871 133.992 105.067 132.534 105.809 130.621L106.978 134.737C106.197 136.69 104.826 138.238 102.854 139.383C100.882 140.527 98.399 141.096 95.4046 141.096ZM106.112 140.72V133.735L105.803 132.426V120.517C105.803 117.983 105.073 116.019 103.618 114.625C102.163 113.23 99.9776 112.535 97.0619 112.535C95.1349 112.535 93.2473 112.86 91.399 113.503C89.5506 114.146 87.9945 115.012 86.7192 116.093L84.2585 111.602C85.9383 110.23 87.9608 109.182 90.3203 108.454C92.6799 107.725 95.1518 107.361 97.736 107.361C102.208 107.361 105.652 108.465 108.073 110.668C110.494 112.871 111.702 116.241 111.702 120.773V140.726H106.112V140.72Z" fill="white"/>
<path d="M132.023 141.096C129.315 141.096 126.742 140.72 124.298 139.975C121.854 139.229 119.938 138.312 118.545 137.231L121.006 132.489C122.399 133.445 124.124 134.253 126.174 134.919C128.225 135.585 130.32 135.916 132.45 135.916C135.197 135.916 137.18 135.523 138.388 134.732C139.596 133.94 140.202 132.842 140.202 131.424C140.202 130.388 139.832 129.574 139.096 128.993C138.36 128.413 137.382 127.974 136.174 127.684C134.961 127.394 133.618 127.132 132.146 126.904C130.669 126.676 129.191 126.386 127.714 126.033C126.236 125.68 124.882 125.179 123.652 124.536C122.421 123.892 121.438 122.999 120.697 121.854C119.961 120.71 119.59 119.184 119.59 117.272C119.59 115.274 120.146 113.532 121.253 112.034C122.36 110.537 123.927 109.381 125.961 108.573C127.989 107.765 130.399 107.355 133.191 107.355C135.326 107.355 137.489 107.617 139.685 108.135C141.882 108.653 143.674 109.393 145.068 110.349L142.545 115.091C141.068 114.095 139.528 113.406 137.927 113.036C136.326 112.666 134.725 112.473 133.129 112.473C130.545 112.473 128.618 112.9 127.343 113.754C126.073 114.607 125.433 115.695 125.433 117.027C125.433 118.148 125.809 119.014 126.573 119.617C127.332 120.221 128.315 120.687 129.528 121.018C130.736 121.353 132.084 121.632 133.556 121.86C135.034 122.088 136.511 122.378 137.989 122.731C139.466 123.084 140.809 123.574 142.017 124.194C143.225 124.82 144.214 125.691 144.972 126.813C145.73 127.934 146.112 129.432 146.112 131.304C146.112 133.303 145.539 135.028 144.388 136.479C143.236 137.937 141.618 139.069 139.528 139.878C137.438 140.692 134.933 141.096 132.023 141.096Z" fill="white"/>
<path d="M148.82 112.598V107.674H169.618V112.598H148.82ZM164.702 141.096C161.421 141.096 158.876 140.202 157.073 138.415C155.27 136.627 154.365 134.071 154.365 130.747V100.438H160.275V130.496C160.275 132.284 160.714 133.656 161.601 134.612C162.483 135.568 163.747 136.047 165.388 136.047C167.236 136.047 168.77 135.529 170.006 134.487L171.854 138.791C170.95 139.582 169.876 140.162 168.624 140.538C167.354 140.908 166.051 141.096 164.702 141.096Z" fill="white"/>
<path d="M193.5 141.096C190.011 141.096 186.944 140.367 184.298 138.916C181.652 137.458 179.601 135.466 178.146 132.927C176.691 130.394 175.961 127.479 175.961 124.194C175.961 120.909 176.669 118 178.084 115.461C179.5 112.928 181.449 110.941 183.933 109.507C186.416 108.072 189.214 107.355 192.331 107.355C195.489 107.355 198.281 108.061 200.702 109.473C203.124 110.884 205.017 112.871 206.393 115.427C207.77 117.983 208.455 120.966 208.455 124.376C208.455 124.627 208.444 124.917 208.427 125.247C208.405 125.583 208.376 125.891 208.337 126.181H180.584V121.877H205.264L202.865 123.374C202.905 121.257 202.472 119.361 201.573 117.699C200.669 116.036 199.427 114.738 197.848 113.799C196.27 112.865 194.433 112.399 192.343 112.399C190.292 112.399 188.466 112.865 186.865 113.799C185.264 114.733 184.011 116.042 183.112 117.727C182.208 119.412 181.758 121.336 181.758 123.494V124.49C181.758 126.693 182.258 128.657 183.264 130.382C184.27 132.107 185.674 133.451 187.478 134.407C189.281 135.363 191.354 135.842 193.691 135.842C195.618 135.842 197.371 135.511 198.955 134.845C200.534 134.179 201.921 133.183 203.107 131.851L206.371 135.716C204.893 137.464 203.056 138.796 200.865 139.707C198.657 140.641 196.208 141.096 193.5 141.096Z" fill="white"/>
<path d="M55.0619 140.72C55.0619 103.028 55.0619 65.3306 55.0619 27.6385H5.87085V9.56958C74.1911 9.56958 142.511 9.56958 210.832 9.56958C210.832 15.5926 210.832 21.6155 210.832 27.6385C165.674 27.6385 120.517 27.6385 75.354 27.6385C75.354 65.3306 75.354 103.028 75.354 140.72C68.59 140.72 61.8259 140.72 55.0619 140.72Z" fill="white"/>
</svg>
