<svg width="263" height="187" viewBox="0 0 263 187" fill="none" xmlns="http://www.w3.org/2000/svg">
<path d="M123.038 105.811C117.317 105.811 112.286 104.622 107.938 102.243C103.596 99.8643 100.231 96.605 97.8358 92.4519C95.447 88.3054 94.2494 83.5477 94.2494 78.179C94.2494 72.8102 95.408 68.0526 97.7317 63.9061C100.055 59.7596 103.251 56.5133 107.326 54.1674C111.4 51.8214 115.996 50.6517 121.112 50.6517C126.293 50.6517 130.875 51.8083 134.846 54.1148C138.816 56.4279 141.927 59.6741 144.186 63.8535C146.438 68.0329 147.571 72.9088 147.571 78.4878C147.571 78.8953 147.551 79.375 147.518 79.9138C147.486 80.4592 147.434 80.9652 147.369 81.4449H101.826V74.407H142.324L138.386 76.8516C138.452 73.3885 137.749 70.2934 136.265 67.5729C134.781 64.8524 132.743 62.7298 130.153 61.1987C127.562 59.6676 124.548 58.9053 121.112 58.9053C117.747 58.9053 114.746 59.6676 112.123 61.1987C109.5 62.7298 107.443 64.8721 105.965 67.6189C104.481 70.3723 103.746 73.5199 103.746 77.0487V78.6784C103.746 82.2795 104.566 85.4929 106.219 88.312C107.866 91.131 110.17 93.3259 113.138 94.8898C116.1 96.4538 119.504 97.2358 123.338 97.2358C126.501 97.2358 129.378 96.6904 131.975 95.6061C134.566 94.5219 136.837 92.8856 138.79 90.7105L144.14 97.0321C141.719 99.884 138.705 102.066 135.099 103.557C131.507 105.062 127.484 105.811 123.038 105.811Z" fill="#5E6723"/>
<path d="M176.36 105.811C171.914 105.811 167.69 105.2 163.687 103.978C159.677 102.756 156.533 101.257 154.242 99.4898L158.284 91.7422C160.575 93.3062 163.4 94.6336 166.765 95.7179C170.13 96.8087 173.567 97.3475 177.069 97.3475C181.58 97.3475 184.828 96.7036 186.813 95.409C188.798 94.121 189.794 92.3139 189.794 90.0074C189.794 88.312 189.189 86.9846 187.978 86.0317C186.767 85.0789 185.166 84.3692 183.181 83.8895C181.196 83.4164 178.989 82.9892 176.568 82.6146C174.147 82.2401 171.719 81.7669 169.297 81.1887C166.876 80.6104 164.65 79.7956 162.632 78.7441C160.614 77.6927 158.994 76.2273 157.783 74.3611C156.572 72.4948 155.967 69.9911 155.967 66.8698C155.967 63.6104 156.878 60.7519 158.694 58.3073C160.51 55.8628 163.088 53.9768 166.42 52.6494C169.753 51.322 173.71 50.6583 178.286 50.6583C181.788 50.6583 185.335 51.0855 188.941 51.9332C192.541 52.7809 195.489 53.99 197.78 55.554L193.641 63.3015C191.219 61.6719 188.694 60.5482 186.064 59.937C183.441 59.3259 180.812 59.017 178.189 59.017C173.945 59.017 170.781 59.7136 168.699 61.1067C166.609 62.4998 165.568 64.2872 165.568 66.4623C165.568 68.2957 166.193 69.7086 167.436 70.6943C168.679 71.68 170.3 72.4422 172.285 72.9877C174.27 73.5331 176.477 73.9931 178.898 74.3611C181.319 74.7356 183.747 75.2088 186.169 75.787C188.59 76.3653 190.796 77.1605 192.782 78.1856C194.767 79.2041 196.381 80.6301 197.631 82.4701C198.874 84.3035 199.499 86.7546 199.499 89.8102C199.499 93.0696 198.555 95.8953 196.674 98.2741C194.786 100.653 192.131 102.506 188.694 103.833C185.257 105.161 181.144 105.811 176.36 105.811Z" fill="#5E6723"/>
<path d="M203.931 59.2142V51.1577H238.064V59.2142H203.931ZM229.987 105.811C224.597 105.811 220.425 104.353 217.463 101.428C214.502 98.5041 213.018 94.3247 213.018 88.8903V39.3359H222.716V88.4763C222.716 91.4005 223.439 93.6413 224.89 95.2053C226.335 96.7693 228.405 97.5513 231.1 97.5513C234.126 97.5513 236.652 96.7036 238.676 95.0016L241.709 102.039C240.225 103.334 238.461 104.28 236.404 104.891C234.348 105.503 232.206 105.811 229.987 105.811Z" fill="#5E6723"/>
<path d="M110.535 162.87C107.729 162.87 105.269 162.39 103.154 161.431C101.038 160.472 99.411 159.138 98.2719 157.436C97.1328 155.734 96.5601 153.802 96.5601 151.64C96.5601 149.576 97.0482 147.703 98.0246 146.028C99.0009 144.346 100.589 143.005 102.802 142C105.015 140.994 107.996 140.488 111.752 140.488H123.728V145.456H112.038C108.615 145.456 106.31 146.034 105.119 147.184C103.928 148.334 103.336 149.727 103.336 151.357C103.336 153.23 104.071 154.728 105.549 155.858C107.02 156.989 109.064 157.547 111.68 157.547C114.245 157.547 116.49 156.969 118.417 155.819C120.344 154.669 121.73 152.987 122.589 150.779L123.943 155.53C123.038 157.784 121.45 159.571 119.166 160.892C116.881 162.213 114.004 162.87 110.535 162.87ZM122.941 162.436V154.373L122.583 152.862V139.115C122.583 136.191 121.737 133.923 120.051 132.313C118.365 130.704 115.833 129.902 112.455 129.902C110.222 129.902 108.035 130.276 105.894 131.019C103.752 131.761 101.949 132.76 100.472 134.009L97.621 128.824C99.5672 127.24 101.91 126.031 104.644 125.19C107.378 124.349 110.242 123.928 113.236 123.928C118.417 123.928 122.407 125.203 125.212 127.746C128.018 130.29 129.417 134.18 129.417 139.41V162.443H122.941V162.436Z" fill="#5E6723"/>
<path d="M152.96 162.87C149.823 162.87 146.842 162.436 144.01 161.576C141.179 160.715 138.959 159.657 137.345 158.408L140.196 152.934C141.81 154.038 143.808 154.971 146.184 155.74C148.56 156.509 150.988 156.89 153.455 156.89C156.637 156.89 158.935 156.437 160.335 155.523C161.734 154.61 162.437 153.342 162.437 151.705C162.437 150.509 162.007 149.57 161.155 148.899C160.302 148.229 159.169 147.723 157.77 147.388C156.364 147.053 154.808 146.751 153.103 146.488C151.391 146.225 149.679 145.89 147.968 145.482C146.256 145.075 144.687 144.497 143.262 143.754C141.836 143.012 140.697 141.98 139.838 140.659C138.985 139.338 138.556 137.577 138.556 135.369C138.556 133.063 139.2 131.052 140.482 129.323C141.765 127.595 143.581 126.261 145.937 125.328C148.287 124.395 151.079 123.922 154.314 123.922C156.787 123.922 159.293 124.224 161.838 124.822C164.383 125.42 166.459 126.274 168.074 127.378L165.151 132.852C163.439 131.702 161.656 130.907 159.801 130.48C157.946 130.053 156.091 129.829 154.242 129.829C151.248 129.829 149.015 130.322 147.538 131.308C146.067 132.294 145.325 133.549 145.325 135.087C145.325 136.381 145.761 137.38 146.646 138.076C147.525 138.773 148.664 139.312 150.07 139.693C151.469 140.081 153.032 140.403 154.737 140.666C156.449 140.928 158.161 141.264 159.872 141.671C161.584 142.078 163.14 142.644 164.539 143.36C165.939 144.083 167.084 145.088 167.963 146.383C168.842 147.677 169.284 149.405 169.284 151.567C169.284 153.874 168.62 155.865 167.286 157.541C165.952 159.223 164.077 160.531 161.656 161.464C159.235 162.404 156.332 162.87 152.96 162.87Z" fill="#5E6723"/>
<path d="M172.422 129.974V124.29H196.518V129.974H172.422ZM190.822 162.87C187.021 162.87 184.073 161.838 181.983 159.775C179.894 157.712 178.846 154.761 178.846 150.923V115.938H185.693V150.634C185.693 152.698 186.201 154.281 187.229 155.385C188.251 156.489 189.716 157.041 191.616 157.041C193.758 157.041 195.535 156.443 196.967 155.241L199.108 160.209C198.06 161.122 196.817 161.792 195.366 162.226C193.895 162.653 192.385 162.87 190.822 162.87Z" fill="#5E6723"/>
<path d="M224.187 162.87C220.145 162.87 216.591 162.029 213.526 160.353C210.46 158.671 208.084 156.371 206.398 153.44C204.713 150.516 203.866 147.151 203.866 143.36C203.866 139.568 204.686 136.21 206.327 133.279C207.967 130.355 210.226 128.062 213.103 126.406C215.979 124.75 219.221 123.922 222.833 123.922C226.491 123.922 229.726 124.737 232.532 126.366C235.337 127.996 237.531 130.289 239.125 133.24C240.72 136.191 241.514 139.634 241.514 143.57C241.514 143.859 241.501 144.194 241.481 144.576C241.455 144.963 241.423 145.318 241.377 145.653H209.223V140.685H237.817L235.038 142.414C235.083 139.969 234.582 137.781 233.541 135.862C232.493 133.943 231.054 132.445 229.225 131.361C227.396 130.283 225.268 129.744 222.846 129.744C220.471 129.744 218.355 130.283 216.5 131.361C214.645 132.438 213.194 133.95 212.152 135.895C211.104 137.84 210.584 140.061 210.584 142.552V143.702C210.584 146.245 211.163 148.512 212.328 150.503C213.493 152.494 215.12 154.045 217.21 155.149C219.299 156.253 221.701 156.805 224.409 156.805C226.641 156.805 228.672 156.424 230.507 155.655C232.336 154.886 233.944 153.736 235.318 152.198L239.099 156.66C237.387 158.678 235.259 160.215 232.72 161.267C230.162 162.344 227.325 162.87 224.187 162.87Z" fill="#5E6723"/>
<path d="M63.7941 162.436C63.7941 118.928 63.7941 75.4124 63.7941 31.9037H6.80188V11.0464C85.957 11.0464 165.112 11.0464 244.267 11.0464C244.267 17.9988 244.267 24.9513 244.267 31.9037C191.949 31.9037 139.63 31.9037 87.3044 31.9037C87.3044 75.4124 87.3044 118.928 87.3044 162.436C79.4676 162.436 71.6309 162.436 63.7941 162.436Z" fill="#263019"/>
</svg>
