<svg width="216" height="186" viewBox="0 0 216 186" fill="none" xmlns="http://www.w3.org/2000/svg">
<path d="M111.136 16.3513C111.136 16.3513 124.164 0.111812 145.554 1.03818C166.944 1.96454 186.065 14.7886 191.994 36.0623C197.76 56.7464 192.43 74.9369 181.958 85.2953C171.803 95.3309 150.639 96.2666 150.639 96.2666M143.429 139.712C143.429 139.712 151.617 140.386 156.616 152.728C163.01 168.518 148.173 184 148.173 184C148.662 174.044 134.919 172.486 124.073 167.199C113.227 161.912 116.417 146.038 120.883 138.65C125.349 131.263 134.718 128.212 140.292 130.481C145.132 132.451 141.193 140.873 135.72 136.62C127.575 130.29 130.458 116.478 166.824 106.7C203.19 96.9217 215 135.455 215 135.455C215 135.455 209.685 132.76 197.347 135.661C185.009 138.566 187.777 141.467 172.887 142.094C157.997 142.716 140.824 124.727 140.824 124.727M140.824 124.731C140.824 124.731 188.17 107.968 195.337 120.46C202.504 132.952 160.329 114.176 160.329 114.176M128.112 143.263C128.112 143.263 143.107 158.633 145.021 161.744C146.935 164.855 144.062 169.988 140.397 167.658C136.727 165.323 140.829 146.52 140.829 146.52M165.14 124.956C165.14 124.956 172.93 126.556 178.461 131.74M21.6284 30.9626C31.9084 17.9981 55.3753 6.36712 83.7687 9.47839C112.162 12.5897 129.393 23.7903 140.555 43.3937C151.723 62.997 150.125 102.204 138.958 117.451C127.795 132.704 108.871 152.981 72.1408 151.652C36.8013 150.375 10.0005 127.908 2.58916 95.5415C-3.99231 66.7961 11.3437 43.9317 21.6284 30.9626ZM51.4369 65.3878C48.7026 66.4218 47.9255 72.5461 51.4369 73.4771C54.9483 74.4129 59.6254 72.2326 58.7763 69.4301C57.9225 66.6323 54.7325 64.1433 51.4369 65.3878ZM120.658 49.8501C121.919 47.5062 118.988 43.5761 116.1 45.3166C113.208 47.057 111.284 51.2958 113.433 52.3158C115.587 53.3357 119.137 52.676 120.658 49.8501ZM54.9483 88.7154C53.7971 91.1108 56.9055 94.9052 59.7117 93.0384C62.518 91.1716 64.2449 86.8533 62.0479 85.9316C59.8557 85.0099 56.3347 85.8287 54.9483 88.7154ZM170.839 24.3377C169.769 25.1611 173.031 38.4998 169.525 39.4777C166.018 40.4555 165.644 36.619 167.332 36.1278C169.021 35.6412 176 46.5938 177.478 46.154C178.955 45.7189 176.917 31.1029 179.92 31.524C182.927 31.9404 183.052 35.5008 181.172 35.7114C179.296 35.9172 171.909 23.5142 170.839 24.3377ZM104.717 30.1158C108.296 37.5126 85.6923 83.9572 79.7632 77.2902C73.8341 70.6279 113.232 36.474 120.955 38.1349C128.678 39.7958 144.441 71.9659 137.092 78.0762C129.743 84.1865 79.0964 87.906 79.9838 82.6519C80.8713 77.3978 129.743 77.8236 132.722 85.5667C135.701 93.3098 135.096 98.1241 130.726 107.341C126.356 116.558 121.214 128.671 110.8 126.551C100.39 124.432 73.5271 91.2418 79.5905 87.5644C85.6539 83.887 102.314 122.851 96.8261 133.766C92.2546 142.866 54.6941 145.589 51.1779 131.787C47.0669 115.645 69.6559 85.9176 73.3784 87.8685C77.1009 89.8195 55.2985 126.514 38.7105 124.956C22.1225 123.393 14.3034 94.9894 18.424 84.6122C22.5447 74.2351 69.6031 77.3651 70.6681 82.2729C71.733 87.1761 21.331 75.11 17.4742 69.3833C13.6174 63.6567 30.8914 28.6841 46.9278 31.0234C62.9641 33.3627 80.0942 75.6854 75.3547 78.109C70.6153 80.5325 49.4702 33.7838 59.7261 24.6558C69.9821 15.5278 99.7954 19.9304 104.717 30.1158Z" stroke="black" stroke-miterlimit="10"/>
</svg>
